<?xml version="1.0" encoding="utf-8"?>
<!-- Generator: Adobe Illustrator 22.1.0, SVG Export Plug-In . SVG Version: 6.00 Build 0)  -->
<svg version="1.1" id="Layer_1" xmlns="http://www.w3.org/2000/svg" xmlns:xlink="http://www.w3.org/1999/xlink" x="0px" y="0px"
	 viewBox="0 0 229.3 96.8" style="enable-background:new 0 0 229.3 96.8;" xml:space="preserve">
<style type="text/css">
	.st0{fill:#F5A494;}
</style>
<g>
	<path class="st0" d="M17.6,54.9c-0.7,1.9-1,3.2-1,4s0.3,1.2,0.7,1.3c0.5,0,1.1-0.2,1.9-0.8s1.6-1.2,2.5-2c0.8-0.8,1.6-1.7,2.3-2.6
		c0.7-0.9,1.2-1.7,1.6-2.3c1.5-2.7,2.9-5.3,4.2-7.8c1.3-2.6,2.2-4.6,2.8-6c0.4-0.5,0.9-0.8,1.4-0.9c0.5-0.1,0.9-0.1,1.4,0.2
		c0.4,0.2,0.7,0.6,1,1c0.2,0.5,0.3,1,0.2,1.7c-1.1,2.4-2.2,4.8-3.3,7.2c-1.1,2.3-2.3,4.6-3.5,6.9c-0.5,0.8-1.2,2-2.1,3.3
		c-0.9,1.4-2,2.8-3.1,4.1c-1.2,1.3-2.5,2.5-3.9,3.5s-2.8,1.5-4.3,1.5c-2.4,0-4.2-0.6-5.3-1.9c-1.2-1.3-2-2.9-2.3-4.8
		c-0.3-1.9-0.4-3.9-0.2-6s0.6-3.9,1-5.5c0.3-1,0.6-2.3,1-3.8s0.9-3.3,1.5-5.4c0.6-2.1,1.2-4.7,1.9-7.6s1.5-6.3,2.4-10.3
		c-1-0.1-1.8-0.4-2.4-0.9c-0.6-0.6-0.9-1.2-1.1-2c-0.2-0.8-0.2-1.7-0.1-2.6c0.1-0.9,0.3-1.7,0.7-2.5c0.8,0.1,1.6,0.2,2.4,0.3
		c0.8,0,1.6,0.1,2.6,0.1l2.7-10C22.1,4.1,23,4,24,4c0.9,0,1.9,0.2,2.9,0.6c1.2,0.5,2,1.2,2.6,2.2c0.5,1,0.7,2.1,0.7,3.4
		c-0.1,0.8-0.2,1.4-0.3,2c-0.1,0.6-0.3,1.1-0.4,1.7c1.3-0.1,2.2,0,2.8,0.3c0.6,0.2,1,0.6,1.2,1c0.2,0.5,0.2,1,0.1,1.6
		c-0.1,0.6-0.2,1.3-0.2,1.9s-0.1,1.2-0.4,1.9c-0.3,0.7-0.6,1.4-0.9,2.2c-1-0.5-1.9-0.7-2.6-0.8c-0.7,0-1.5,0-2.5,0.1
		c-1.8,6.5-3.3,11.7-4.3,15.7c-1.1,4-1.9,7.2-2.6,9.6c-0.6,2.4-1.1,4.1-1.4,5.2C18.1,53.4,17.8,54.3,17.6,54.9z"/>
	<path class="st0" d="M48.9,54.3c-0.5,0.8-1,1.6-1.6,2.4c-0.6,0.8-1.2,1.5-1.7,2.2s-0.9,1-1.3,1.2c-0.3,0.1-0.5-0.1-0.6-0.7
		c0-0.4,0-1,0.2-1.8c-3.2,0-6.1,0-9.1,0c0.2,1.6,0.7,3.1,1.5,4.5c1.1,1.9,2.7,3.4,5,4.5c1.3,0.6,2.5,0.5,3.7-0.2s2.3-1.6,3.4-2.8
		c1.1-1.2,2.1-2.6,2.9-4.1c0.9-1.5,1.6-2.8,2.2-3.8c1.4-2.7,2.6-5.3,3.7-7.6c1.1-2.4,1.9-4.3,2.6-5.8l0.6-1.4c0.1-0.7,0-1.3-0.3-1.8
		c-0.2-0.5-0.6-0.9-1-1.1c-0.4-0.2-0.9-0.3-1.4-0.2s-0.9,0.4-1.4,1c-0.6,1.4-1.4,3.4-2.6,5.9c-1.2,2.5-2.5,5.1-4,7.8"/>
	<path class="st0" d="M41.3,57.1L45.8,40c0.1-0.6,0.3-1.2,0.4-1.9c0.1-0.7,0.2-1.5,0.2-2.2c0-1.2-0.2-2.3-0.7-3.2
		c-0.5-1-1.4-1.7-2.6-2.2c-0.8-0.3-1.6-0.4-2.6-0.4s-1.8,0.1-2.5,0.4c-0.7,0.2-0.9,0.6-0.8,1.2c0,0.3-0.1,1-0.3,2
		c-0.2,1.1-0.5,2.4-0.8,3.8c-0.3,1.5-0.7,3.1-1.2,4.8c-0.4,1.7-0.8,3.4-1.3,4.9l-1.5,6.7c-0.1,0.6-0.2,1.1-0.3,1.6
		c-0.1,0.5-0.1,1-0.1,1.6c0,0.5,0,1,0.1,1.5c3,0,5.9,0,9.1,0C41,58.1,41.1,57.6,41.3,57.1z"/>
	<path class="st0" d="M67.4,29.8c2-0.9,3.9-1.4,6-1.4c1.4,0,2.8,0.2,4.2,0.6c1.4,0.4,2.6,1,3.7,1.9c1,0.8,1.9,1.9,2.5,3.2
		s0.8,2.8,0.6,4.6c-0.7,3.8-2.1,6.8-4.2,9s-4.6,3.9-7.4,5.1c-2,0.9-4,1.6-6.1,2.2c-2,0.6-3.9,1-5.5,1.3c0.1,1.4,0.7,2.6,1.6,3.6
		c0.9,1,2,1.5,3.3,1.5c2.3,0,4.6-0.6,6.9-1.9c2.3-1.3,4.4-3,6.4-5c2-2.1,3.8-4.4,5.5-7.1c1.7-2.7,3.1-5.3,4.2-8.1
		c0.3-0.7,0.7-1.2,1.2-1.4s1-0.3,1.5-0.2s0.8,0.5,1.2,0.9c0.3,0.5,0.4,1.1,0.3,1.8c-0.4,2.8-1.5,5.7-3.1,8.8
		c-1.7,3.1-3.8,5.9-6.4,8.5s-5.5,4.7-8.9,6.5c-3.3,1.7-6.9,2.7-10.8,2.8c-4.5,0.1-8-1.1-10.4-3.6s-3.3-6.1-2.7-10.6
		c0.3-2.6,0.9-5.1,1.9-7.5s2.3-4.6,3.8-6.6s3.2-3.7,5.1-5.3C63.5,31.9,65.4,30.7,67.4,29.8z M70.7,48.2c1-0.5,2-1.1,2.9-1.8
		c1-0.7,1.8-1.5,2.6-2.4c0.7-0.9,1.3-1.8,1.7-2.8c0.4-1,0.6-2,0.6-3.1c-0.1-1.7-0.7-2.7-1.9-3c-1.2-0.3-2.6,0.1-4.2,1.3
		c-2.9,2-5.1,4.2-6.6,6.5s-2.7,5-3.6,8.1c1.5-0.3,2.9-0.7,4.4-1.2C68,49.3,69.4,48.8,70.7,48.2z"/>
	<path class="st0" d="M116.8,56.2c-0.6,2.2-0.7,3.5-0.2,3.9c0.5,0.3,1.3,0.2,2.2-0.5c1-0.7,2-1.7,3.2-3.1c1.2-1.4,2.1-2.7,2.8-3.9
		c0.6-1.3,1.3-2.5,1.9-3.9c0.7-1.3,1.3-2.6,1.9-3.9c0.6-1.3,1.1-2.4,1.6-3.5c0.5-1,0.9-1.9,1.2-2.6c0.4-0.5,0.9-0.8,1.4-0.9
		c0.5-0.1,0.9-0.1,1.4,0.2c0.4,0.2,0.7,0.6,0.9,1c0.2,0.5,0.3,1,0.2,1.7c-1,2.4-2,4.8-3,7.2c-1,2.3-2.2,4.6-3.3,6.9
		c-0.5,0.8-1.2,2-2,3.3c-0.8,1.4-1.8,2.8-3,4.1s-2.4,2.5-3.8,3.5s-2.8,1.5-4.2,1.5c-0.3,0-0.7,0-1.1-0.1s-0.7-0.2-1.1-0.3
		c-1-0.4-1.9-1-2.8-1.7s-1.6-1.5-2.2-2.5c-0.6-0.9-1-2-1.3-3.1c-0.3-1.2-0.3-2.4-0.2-3.7c-1.8,2.2-3.8,4.3-5.9,6.1s-4.4,3.1-7,3.8
		c-0.6,0.1-1.1,0.2-1.7,0.3c-0.6,0.1-1,0.1-1.5,0.1c-2.9,0-5.1-1-6.5-3.1s-2.1-4.6-2.1-7.7c0-1.3,0.2-2.7,0.5-4.2s0.7-2.9,1.3-4.3
		c0.6-1.6,1.6-3.5,2.8-5.7c1.3-2.2,2.9-4.2,4.8-6.1c2-1.9,4.2-3.5,6.9-4.7c2.6-1.3,5.6-1.8,8.9-1.6c1.7,0.1,3.3,0.6,4.6,1.5
		c0.6-3.1,1.3-6.1,1.9-9.1c0.7-3,1.2-5.6,1.7-8s0.9-4.3,1.2-5.7c0.3-1.4,0.5-2.2,0.5-2.3c0.1-0.5,0.3-0.9,0.8-1.1
		c0.5-0.2,1.1-0.4,1.7-0.5c0.7-0.1,1.3-0.1,1.9,0.1c0.6,0.1,1.1,0.2,1.5,0.4c1,0.4,1.7,1,2.2,1.7s0.8,1.5,0.9,2.4s0.2,1.8,0.1,2.8
		s-0.3,1.9-0.5,2.7l-4.4,18.8L119,45.6c-0.4,1.7-0.8,3.5-1.2,5.2C117.5,52.6,117.2,54.4,116.8,56.2z M96,59.6
		c2.4-1.5,4.7-3.6,6.9-6.2c2.2-2.6,4.3-5.2,6.3-7.8l1.4-6.7l0.7-2.9h0.1c-0.8-1-1.9-1.4-3.5-1.2c-1.2,0.1-2.4,0.5-3.7,1.3
		c-1.3,0.8-2.5,1.9-3.7,3.2s-2.3,2.8-3.3,4.4c-1,1.6-1.9,3.2-2.6,4.9c-1.6,3.8-2.4,6.7-2.4,8.9c0,1.8,0.6,2.7,1.8,2.7
		C94.6,60.3,95.2,60,96,59.6z"/>
	<path class="st0" d="M147.5,29.6c-0.1-0.4,0.1-0.7,0.6-0.9c0.5-0.2,1.2-0.3,2-0.3c0.6,0,1.3,0.1,2.1,0.3c0.8,0.2,1.5,0.6,2.1,1
		c0.7,0.5,1.2,1.1,1.7,1.8c0.5,0.7,0.7,1.6,0.7,2.6c0,0.8-0.1,1.8-0.4,3c-0.3,1.2-0.8,3.1-1.6,5.5l-4.1,13.5
		c-0.5,1.4-0.7,2.5-0.7,3.5c0,0.6,0.2,0.7,0.7,0.4s1-0.8,1.6-1.6s1.3-1.7,2.1-2.7s1.5-2.1,2.1-3.1c0.8-1.6,1.7-3.2,2.6-4.9
		c0.9-1.7,1.6-3.2,2.1-4.6c0.3-1.3,0.7-2.7,1-4.1c0.3-1.4,0.6-2.7,0.8-3.8s0.4-2.1,0.6-2.9c0.1-0.8,0.2-1.3,0.1-1.5
		c-0.1-0.6,0.2-1,0.9-1.3s1.5-0.4,2.5-0.4c0.4,0,0.9,0,1.3,0.1c0.5,0.1,0.9,0.2,1.2,0.3c1.4,0.6,2.4,1.3,2.9,2.2
		c0.6,0.9,0.8,2.1,0.8,3.4c0,0.6,0,1.1-0.1,1.5c-0.1,0.5-0.2,1-0.3,1.5c-0.1,0.3-0.3,0.9-0.6,1.9c-0.2,1-0.5,2.1-0.9,3.3
		c-0.3,1.3-0.7,2.6-1,4s-0.7,2.7-1,3.9s-0.6,2.3-0.8,3.1c-0.2,0.9-0.3,1.4-0.4,1.6c-0.4,1.7-0.6,2.8-0.6,3.5c0,0.5,0.2,0.6,0.6,0.4
		c0.4-0.2,0.9-0.7,1.5-1.5c0.6-0.7,1.3-1.6,2-2.7s1.5-2.1,2.2-3.2c1.4-2.7,2.7-5.2,3.8-7.8c1.2-2.5,2-4.5,2.7-5.9
		c0.3-0.5,0.8-0.8,1.3-0.9c0.5-0.1,1-0.1,1.4,0.2c0.4,0.2,0.7,0.5,1,1c0.2,0.5,0.3,1,0.3,1.6l-0.7,1.8c-0.7,1.5-1.5,3.4-2.5,5.6
		c-0.9,2.2-2,4.4-3.2,6.6c-0.8,1.3-1.6,2.8-2.6,4.4c-0.9,1.6-2,3.1-3,4.3c-1.1,1.3-2.2,2.3-3.5,2.9c-1.2,0.7-2.5,0.7-3.7,0.2
		c-2.2-1-3.8-2.2-4.8-3.7c-0.9-1.5-1.5-3.1-1.7-4.7c-0.6,1.2-1.3,2.4-2.1,3.6s-1.7,2.2-2.6,3.1c-0.9,0.9-1.9,1.5-2.9,1.9
		s-2.1,0.3-3.2-0.2c-2.5-1.2-4.2-2.7-5.1-4.7c-0.9-1.9-1.4-3.9-1.4-5.9c0-0.8,0.1-1.7,0.3-2.8s0.5-2.3,0.8-3.7
		c0.3-1.3,0.7-2.7,1.1-4.1c0.4-1.4,0.8-2.8,1.2-4.2c0.8-2.5,1.4-4.8,2-7C147.3,32,147.5,30.5,147.5,29.6z"/>
	<path class="st0" d="M187.8,28.8c1.1,0.4,1.8,1.1,2.2,1.9c0.3,0.9,0.5,1.8,0.5,2.8v0.6c1.4-1.4,2.9-2.6,4.4-3.5s3.2-1.4,5-1.4
		c3.5,0.1,6.1,1.3,7.7,3.7c1.7,2.4,2.5,5.3,2.5,8.7c0,1.4-0.1,2.8-0.4,4.2c-0.2,1.4-0.6,2.9-1.2,4.3l-2.6,5.2
		c1.9-1.8,3.6-4.1,5.3-6.9c1.6-2.8,3.5-6,5.5-9.8c0.5-0.6,1-1,1.6-1.1s1.1,0,1.6,0.3s0.8,0.8,0.9,1.3c0.2,0.6,0.1,1.2-0.3,1.9
		c-1.7,3.1-3.3,5.9-4.8,8.5s-3.1,5-4.7,7c-1.6,2.1-3.3,3.8-5.2,5.2c-1.8,1.4-4,2.5-6.3,3.2c-0.8,0.2-1.8,0.4-2.8,0.6
		s-2.1,0.3-3.2,0.3c-1.7,0-3.2-0.2-4.5-0.6c-2.1-0.8-3.7-2.1-4.7-3.7c-0.6,2.4-1.2,5-1.8,7.6c-0.6,2.6-1.2,5.2-1.7,7.6
		c-0.5,2.5-0.9,4.8-1.2,6.9s-0.5,3.8-0.5,5.2c0,0.2,0,0.4,0.1,0.6c0,0.2,0.1,0.3,0.1,0.5c0.1,1-0.1,1.8-0.4,2.4
		c-0.3,0.6-1.3,0.9-3.1,0.9c-2.2,0-3.8-0.5-4.8-1.6c-1-1-1.5-2.6-1.5-4.6c-0.1-2.1,0.1-4.5,0.5-7.2s0.9-5.5,1.5-8.5s1.3-6,2.1-9.1
		s1.6-6.2,2.4-9.2c0.6-2.4,1.2-4.7,1.8-7.1c0.6-2.3,1.1-4.5,1.6-6.6s0.9-3.9,1.2-5.6c0.3-1.7,0.4-3.1,0.4-4.2c0-0.6,0.4-1,1.2-1.2
		s1.7-0.4,2.8-0.4c1,0,1.9,0.2,2.8,0.5l0,0L187.8,28.8L187.8,28.8z M186.1,54.5c0.1,1,0.4,2,0.8,2.9c0.4,0.9,1.2,1.4,2.4,1.5
		c1.3,0.1,2.7-0.5,4-1.9s2.6-3,3.7-4.9c1.2-1.9,2.1-3.8,3-5.7c0.8-1.9,1.4-3.3,1.8-4.3c0.6-1.8,0.8-3.3,0.8-4.5
		c0-2.2-1.1-3.2-3.3-3.2c-1.8,0.1-3.5,0.9-4.9,2.4c-1.5,1.4-2.9,3-4.3,4.7l-1.2,1.4h0.1L186.1,54.5z"/>
</g>
<path class="st0" d="M40.6,22.5L36.1,4.8c-0.2-0.6,0.4-1.1,1-1l23.2,5.8c0.6,0.2,0.8,0.9,0.4,1.3L48.3,24.6"/>
<path class="st0" d="M47.3,26.7L47.3,26.7L43,25.4l-3.4-0.9L21.7,57.7c-0.1,0.2-0.1,0.5,0,0.7l8,19.1c0.2,0.5,0.8,0.6,1.2,0.3
	l16.1-13c0.2-0.1,0.3-0.4,0.3-0.6V26.7z"/>
</svg>
